HIERARCHY
ROOT hip
{
  OFFSET 0 90.174 2.4664
  CHANNELS 6 Xposition Yposition Zposition Zrotation Xrotation Yrotation
  JOINT abdomen
  {
    OFFSET 0 -1.186 -1.5018
    CHANNELS 6 Xposition Yposition Zposition Zrotation Xrotation Yrotation
    JOINT abdomen2
    {
      OFFSET 0 9.964 0.2134
      CHANNELS 6 Xposition Yposition Zposition Zrotation Xrotation Yrotation
      JOINT chest
      {
        OFFSET 0 13.134 -3.2573
        CHANNELS 6 Xposition Yposition Zposition Zrotation Xrotation Yrotation
        JOINT neck
        {
          OFFSET 0 20.686 -1.6905
          CHANNELS 6 Xposition Yposition Zposition Zrotation Xrotation Yrotation
          JOINT head
          {
            OFFSET 0 7.238 -0.1237
            CHANNELS 6 Xposition Yposition Zposition Zrotation Xrotation Yrotation
            End Site
            {
              OFFSET 0 0 0
            }
          }
        }
        JOINT lCollar
        {
          OFFSET 1.7069 20.075 5.0056
          CHANNELS 6 Xposition Yposition Zposition Zrotation Xrotation Yrotation
          JOINT lShldr
          {
            OFFSET 13.6458 -0.047 -4.849
            CHANNELS 6 Xposition Yposition Zposition Zrotation Xrotation Yrotation
            JOINT lForeArm
            {
              OFFSET 28.3255 -0.9759 2.2888
              CHANNELS 6 Xposition Yposition Zposition Zrotation Xrotation Yrotation
              JOINT lHand
              {
                OFFSET 22.1583 -0.53 10.8316
                CHANNELS 6 Xposition Yposition Zposition Zrotation Xrotation Yrotation
                JOINT lThumb1
                {
                  OFFSET 0.786 0.112 2.5817
                  CHANNELS 6 Xposition Yposition Zposition Zrotation Xrotation Yrotation
                  JOINT lThumb2
                  {
                    OFFSET 0.3601 -0.878 4.2331
                    CHANNELS 6 Xposition Yposition Zposition Zrotation Xrotation Yrotation
                    JOINT lThumb2_End
                    {
                      OFFSET 1.8127 -1.216 2.2227
                      CHANNELS 6 Xposition Yposition Zposition Zrotation Xrotation Yrotation
                      End Site
                      {
                        OFFSET 0.0181 -0.0122 0.0222
                      }
                    }
                  }
                }
                JOINT lCarpal1
                {
                  OFFSET 0.9571 1.114 1.7695
                  CHANNELS 6 Xposition Yposition Zposition Zrotation Xrotation Yrotation
                  JOINT lIndex1
                  {
                    OFFSET 4.1246 0.487 4.1451
                    CHANNELS 6 Xposition Yposition Zposition Zrotation Xrotation Yrotation
                    JOINT lIndex2
                    {
                      OFFSET 3.4052 -1.454 2.7682
                      CHANNELS 6 Xposition Yposition Zposition Zrotation Xrotation Yrotation
                      JOINT lIndex2_End
                      {
                        OFFSET 1.4531 -1.795 1.2713
                        CHANNELS 6 Xposition Yposition Zposition Zrotation Xrotation Yrotation
                        End Site
                        {
                          OFFSET 0.0145 -0.0179 0.0127
                        }
                      }
                    }
                  }
                  JOINT lMid1
                  {
                    OFFSET 5.6954 0.21 2.1184
                    CHANNELS 6 Xposition Yposition Zposition Zrotation Xrotation Yrotation
                    JOINT lMid2
                    {
                      OFFSET 3.9766 -1.54 2.3863
                      CHANNELS 6 Xposition Yposition Zposition Zrotation Xrotation Yrotation
                      JOINT lMid2_End
                      {
                        OFFSET 1.4042 -1.926 1.125
                        CHANNELS 6 Xposition Yposition Zposition Zrotation Xrotation Yrotation
                        End Site
                        {
                          OFFSET 0.014 -0.0193 0.0113
                        }
                      }
                    }
                  }
                }
                JOINT lCarpal2
                {
                  OFFSET 2.0956 0.66 -0.3894
                  CHANNELS 6 Xposition Yposition Zposition Zrotation Xrotation Yrotation
                  JOINT lRing1
                  {
                    OFFSET 5.0395 -0.09 2.4971
                    CHANNELS 6 Xposition Yposition Zposition Zrotation Xrotation Yrotation
                    JOINT lRing2
                    {
                      OFFSET 3.7921 -1.552 1.4806
                      CHANNELS 6 Xposition Yposition Zposition Zrotation Xrotation Yrotation
                      JOINT lRing2_End
                      {
                        OFFSET 1.4655 -1.808 0.9609
                        CHANNELS 6 Xposition Yposition Zposition Zrotation Xrotation Yrotation
                        End Site
                        {
                          OFFSET 0.0147 -0.0181 0.0096
                        }
                      }
                    }
                  }
                  JOINT lPinky1
                  {
                    OFFSET 4.9141 -1.269 0.3591
                    CHANNELS 6 Xposition Yposition Zposition Zrotation Xrotation Yrotation
                    JOINT lPinky2
                    {
                      OFFSET 3.1477 -1.685 0.8462
                      CHANNELS 6 Xposition Yposition Zposition Zrotation Xrotation Yrotation
                      JOINT lPinky2_End
                      {
                        OFFSET 0.8055 -1.585 0.7955
                        CHANNELS 6 Xposition Yposition Zposition Zrotation Xrotation Yrotation
                        End Site
                        {
                          OFFSET 0.0081 -0.0158 0.008
                        }
                      }
                    }
                  }
                }
              }
            }
          }
        }
        JOINT rCollar
        {
          OFFSET -1.7069 20.075 5.0056
          CHANNELS 6 Xposition Yposition Zposition Zrotation Xrotation Yrotation
          JOINT rShldr
          {
            OFFSET -13.6458 -0.047 -4.849
            CHANNELS 6 Xposition Yposition Zposition Zrotation Xrotation Yrotation
            JOINT rForeArm
            {
              OFFSET -28.3255 -0.9759 2.2888
              CHANNELS 6 Xposition Yposition Zposition Zrotation Xrotation Yrotation
              JOINT rHand
              {
                OFFSET -22.1583 -0.53 10.8316
                CHANNELS 6 Xposition Yposition Zposition Zrotation Xrotation Yrotation
                JOINT rThumb1
                {
                  OFFSET -0.786 0.112 2.5817
                  CHANNELS 6 Xposition Yposition Zposition Zrotation Xrotation Yrotation
                  JOINT rThumb2
                  {
                    OFFSET -0.3601 -0.878 4.2331
                    CHANNELS 6 Xposition Yposition Zposition Zrotation Xrotation Yrotation
                    JOINT rThumb2_End
                    {
                      OFFSET -1.8127 -1.216 2.2227
                      CHANNELS 6 Xposition Yposition Zposition Zrotation Xrotation Yrotation
                      End Site
                      {
                        OFFSET -0.0181 -0.0122 0.0222
                      }
                    }
                  }
                }
                JOINT rCarpal1
                {
                  OFFSET -0.9571 1.114 1.7695
                  CHANNELS 6 Xposition Yposition Zposition Zrotation Xrotation Yrotation
                  JOINT rIndex1
                  {
                    OFFSET -4.1246 0.487 4.1451
                    CHANNELS 6 Xposition Yposition Zposition Zrotation Xrotation Yrotation
                    JOINT rIndex2
                    {
                      OFFSET -3.4052 -1.454 2.7682
                      CHANNELS 6 Xposition Yposition Zposition Zrotation Xrotation Yrotation
                      JOINT rIndex2_End
                      {
                        OFFSET -1.4531 -1.795 1.2713
                        CHANNELS 6 Xposition Yposition Zposition Zrotation Xrotation Yrotation
                        End Site
                        {
                          OFFSET -0.0145 -0.018 0.0127
                        }
                      }
                    }
                  }
                  JOINT rMid1
                  {
                    OFFSET -5.6954 0.21 2.1184
                    CHANNELS 6 Xposition Yposition Zposition Zrotation Xrotation Yrotation
                    JOINT rMid2
                    {
                      OFFSET -3.9766 -1.54 2.3863
                      CHANNELS 6 Xposition Yposition Zposition Zrotation Xrotation Yrotation
                      JOINT rMid2_End
                      {
                        OFFSET -1.4042 -1.926 1.125
                        CHANNELS 6 Xposition Yposition Zposition Zrotation Xrotation Yrotation
                        End Site
                        {
                          OFFSET -0.014 -0.0193 0.0113
                        }
                      }
                    }
                  }
                }
                JOINT rCarpal2
                {
                  OFFSET -2.0956 0.66 -0.3894
                  CHANNELS 6 Xposition Yposition Zposition Zrotation Xrotation Yrotation
                  JOINT rRing1
                  {
                    OFFSET -5.0395 -0.09 2.4971
                    CHANNELS 6 Xposition Yposition Zposition Zrotation Xrotation Yrotation
                    JOINT rRing2
                    {
                      OFFSET -3.7921 -1.552 1.4806
                      CHANNELS 6 Xposition Yposition Zposition Zrotation Xrotation Yrotation
                      JOINT rRing2_End
                      {
                        OFFSET -1.4655 -1.808 0.9609
                        CHANNELS 6 Xposition Yposition Zposition Zrotation Xrotation Yrotation
                        End Site
                        {
                          OFFSET -0.0147 -0.0181 0.0096
                        }
                      }
                    }
                  }
                  JOINT rPinky1
                  {
                    OFFSET -4.9141 -1.269 0.3592
                    CHANNELS 6 Xposition Yposition Zposition Zrotation Xrotation Yrotation
                    JOINT rPinky2
                    {
                      OFFSET -3.1477 -1.685 0.8462
                      CHANNELS 6 Xposition Yposition Zposition Zrotation Xrotation Yrotation
                      JOINT rPinky2_End
                      {
                        OFFSET -0.8055 -1.585 0.7955
                        CHANNELS 6 Xposition Yposition Zposition Zrotation Xrotation Yrotation
                        End Site
                        {
                          OFFSET -0.0081 -0.0158 0.008
                        }
                      }
                    }
                  }
                }
              }
            }
          }
        }
      }
    }
  }
  JOINT lThigh
  {
    OFFSET 8.367 -8.2066 0.5982
    CHANNELS 6 Xposition Yposition Zposition Zrotation Xrotation Yrotation
    JOINT lShin
    {
      OFFSET 2.1923 -43.463 -0.4932
      CHANNELS 6 Xposition Yposition Zposition Zrotation Xrotation Yrotation
      JOINT lFoot
      {
        OFFSET 0.7333 -45.8593 -2.6451
        CHANNELS 6 Xposition Yposition Zposition Zrotation Xrotation Yrotation
        End Site
        {
          OFFSET 2.6618 -4.2699 12.3931
        }
      }
    }
  }
  JOINT rThigh
  {
    OFFSET -8.367 -8.2066 0.5982
    CHANNELS 6 Xposition Yposition Zposition Zrotation Xrotation Yrotation
    JOINT rShin
    {
      OFFSET -2.1923 -43.463 -0.4931
      CHANNELS 6 Xposition Yposition Zposition Zrotation Xrotation Yrotation
      JOINT rFoot
      {
        OFFSET -0.7333 -45.8593 -2.6451
        CHANNELS 6 Xposition Yposition Zposition Zrotation Xrotation Yrotation
        End Site
        {
          OFFSET -2.6618 -4.2699 12.3931
        }
      }
    }
  }
}
MOTION
Frames:	4
Frame Time:	0.0333333
0 90.174 2.4664 0 0 -0 0 -1.186 -1.5018 0 0 -0 0 9.964 0.2134 0 0 -0 0 13.134 -3.2573 0 0 -0 0 20.686 -1.6905 0 0 -0 0 7.238 -0.1237 0 0 -0 1.7069 20.075 5.0056 0 0 -0 13.6458 -0.047 -4.849 1.66051 0.0835086 5.75766 28.3255 -0.9759 2.2888 -0.0175111 0.895433 15.7816 22.1583 -0.53 10.8316 7.95139e-016 -1.98785e-016 -0 0.786 0.112 2.5817 5.46658e-016 -3.97569e-016 -0 0.3601 -0.878 4.2331 5.96354e-016 0 -0 1.8127 -1.216 2.2227 3.97569e-016 1.98785e-016 9.54166e-015 0.9571 1.114 1.7695 1.49089e-016 -3.97569e-016 -0 4.1246 0.487 4.1451 6.4605e-016 0 3.18055e-015 3.4052 -1.454 2.7682 5.96354e-016 0 3.18055e-015 1.4531 -1.795 1.2713 8.94531e-016 -1.98785e-016 6.36111e-015 5.6954 0.21 2.1184 6.4605e-016 0 3.18055e-015 3.9766 -1.54 2.3863 5.96354e-016 0 3.18055e-015 1.4042 -1.926 1.125 8.94531e-016 -1.98785e-016 6.36111e-015 2.0956 0.66 -0.3894 1.49089e-016 -3.97569e-016 -0 5.0395 -0.09 2.4971 6.4605e-016 0 3.18055e-015 3.7921 -1.552 1.4806 5.96354e-016 0 3.18055e-015 1.4655 -1.808 0.9609 8.94531e-016 -1.98785e-016 6.36111e-015 4.9141 -1.269 0.3591 6.4605e-016 0 3.18055e-015 3.1477 -1.685 0.8462 5.96354e-016 0 3.18055e-015 0.8055 -1.585 0.7955 8.94531e-016 -1.98785e-016 6.36111e-015 -1.7069 20.075 5.0056 0 0 -0 -13.6458 -0.047 -4.849 -1.4496 0.0636048 -5.0245 -28.3255 -0.9759 2.2888 -1.74811 1.20616 -16.8394 -22.1583 -0.53 10.8316 -1.19271e-015 1.98785e-016 -3.18055e-015 -0.786 0.112 2.5817 -3.97569e-016 1.98785e-016 -3.18055e-015 -0.3601 -0.878 4.2331 -2.98177e-016 1.98785e-016 -3.18055e-015 -1.8127 -1.216 2.2227 -2.98177e-016 3.97569e-016 -0 -0.9571 1.114 1.7695 4.96962e-016 0 -6.36111e-015 -4.1246 0.487 4.1451 -9.93923e-017 3.97569e-016 -0 -3.4052 -1.454 2.7682 -8.94531e-016 5.96354e-016 -0 -1.4531 -1.795 1.2713 -3.97569e-016 3.97569e-016 -0 -5.6954 0.21 2.1184 -9.93923e-017 3.97569e-016 -0 -3.9766 -1.54 2.3863 -8.94531e-016 5.96354e-016 -0 -1.4042 -1.926 1.125 -3.97569e-016 3.97569e-016 -0 -2.0956 0.66 -0.3894 4.96962e-016 0 -6.36111e-015 -5.0395 -0.09 2.4971 -9.93923e-017 3.97569e-016 -0 -3.7921 -1.552 1.4806 -8.94531e-016 5.96354e-016 -0 -1.4655 -1.808 0.9609 -3.97569e-016 3.97569e-016 -0 -4.9141 -1.269 0.3592 -9.93923e-017 3.97569e-016 -0 -3.1477 -1.685 0.8462 -8.94531e-016 5.96354e-016 -0 -0.8055 -1.585 0.7955 -3.97569e-016 3.97569e-016 -0 8.367 -8.2066 0.5982 -4.66115 -1.03232 0.120763 2.1923 -43.463 -0.4932 0.00990601 1.55097 0.177175 0.7333 -45.8593 -2.6451 4.65196 -0.54114 -0.255042 -8.367 -8.2066 0.5982 4.66115 -1.03222 -0.120763 -2.1923 -43.463 -0.4931 -0.00990459 1.5509 -0.177176 -0.7333 -45.8593 -2.6451 -4.65196 -0.541171 0.255041 
-2.52773 40.8351 -35.9592 120.476 -60.3704 -0.348704 0 -1.186 -1.5018 -0.0567362 -0.101933 -0.0894851 -7.10543e-015 9.964 0.2134 -0.113626 -0.203719 -0.179067 7.10543e-015 13.134 -3.2573 -0.113638 -0.203719 -0.179066 1.42109e-014 20.686 -1.6905 4.60311e-005 -0.238309 -2.30154e-005 7.10543e-015 7.238 -0.1237 5.07058e-006 -0.272703 -1.95436e-007 1.7069 20.075 5.0056 -4.06821 -0.104504 -0.159017 13.6458 -0.047 -4.849 2.94361 -3.23715 -30.5429 28.3255 -0.9759 2.2888 9.10517 -10.7492 -5.04945 22.1583 -0.53 10.8316 38.3385 -13.4504 5.51163 0.786 0.112 2.5817 -3.18055e-015 0 -7.95139e-016 0.3601 -0.878 4.2331 -3.18055e-015 7.95139e-016 1.98785e-015 1.8127 -1.216 2.2227 -3.18055e-015 3.18055e-015 4.77083e-015 0.9571 1.114 1.7695 -3.18055e-015 -7.95139e-016 -7.95139e-016 4.1246 0.487 4.1451 -3.18055e-015 0 1.59028e-015 3.4052 -1.454 2.7682 -3.18055e-015 3.18055e-015 4.37326e-015 1.4531 -1.795 1.2713 -3.18055e-015 1.59028e-015 1.98785e-015 5.6954 0.21 2.1184 -3.18055e-015 0 1.59028e-015 3.9766 -1.54 2.3863 -3.18055e-015 3.18055e-015 4.37326e-015 1.4042 -1.926 1.125 -3.18055e-015 1.59028e-015 1.98785e-015 2.0956 0.66 -0.3894 -3.18055e-015 -7.95139e-016 -7.95139e-016 5.0395 -0.09 2.4971 -3.18055e-015 0 1.59028e-015 3.7921 -1.552 1.4806 -3.18055e-015 3.18055e-015 4.37326e-015 1.4655 -1.808 0.9609 -3.18055e-015 1.59028e-015 1.98785e-015 4.9141 -1.269 0.3591 -3.18055e-015 0 1.59028e-015 3.1477 -1.685 0.8462 -3.18055e-015 3.18055e-015 4.37326e-015 0.8055 -1.585 0.7955 -3.18055e-015 1.59028e-015 1.98785e-015 -1.7069 20.075 5.0056 4.06649 -0.104894 0.15982 -13.6458 -0.047 -4.849 -2.76348 -3.12885 31.2775 -28.3255 -0.9759 2.2888 -11.0572 -10.8934 3.6584 -22.1583 -0.53 10.8316 -38.3049 -13.5468 -5.86692 -0.786 0.112 2.5817 1.90833e-014 -6.36111e-015 1.07344e-014 -0.3601 -0.878 4.2331 1.27222e-014 -9.14409e-015 1.11319e-014 -1.8127 -1.216 2.2227 6.36111e-015 -1.03368e-014 1.03368e-014 -0.9571 1.114 1.7695 6.36111e-015 0 -0 -4.1246 0.487 4.1451 1.90833e-014 -8.34896e-015 8.74653e-015 -3.4052 -1.454 2.7682 1.27222e-014 -5.1684e-015 9.54166e-015 -1.4531 -1.795 1.2713 9.54166e-015 -7.95139e-015 1.19271e-014 -5.6954 0.21 2.1184 1.90833e-014 -8.34896e-015 8.74653e-015 -3.9766 -1.54 2.3863 1.27222e-014 -5.1684e-015 9.54166e-015 -1.4042 -1.926 1.125 9.54166e-015 -7.95139e-015 1.19271e-014 -2.0956 0.66 -0.3894 6.36111e-015 0 -0 -5.0395 -0.09 2.4971 1.90833e-014 -8.34896e-015 8.74653e-015 -3.7921 -1.552 1.4806 1.27222e-014 -5.1684e-015 9.54166e-015 -1.4655 -1.808 0.9609 9.54166e-015 -7.95139e-015 1.19271e-014 -4.9141 -1.269 0.3592 1.90833e-014 -8.34896e-015 8.74653e-015 -3.1477 -1.685 0.8462 1.27222e-014 -5.1684e-015 9.54166e-015 -0.8055 -1.585 0.7955 9.54166e-015 -7.95139e-015 1.19271e-014 8.367 -8.2066 0.5982 99.0514 -79.9382 113.662 2.1923 -43.463 -0.4932 34.474 85.4858 -34.5822 0.7333 -45.8593 -2.6451 7.38108 39.9054 -2.3421 -8.367 -8.2066 0.5982 -107.339 -80.0524 -122.425 -2.1923 -43.463 -0.4931 -27.0033 84.2715 26.6685 -0.7333 -45.8593 -2.6451 -8.13075 42.5365 2.54004 
-0.598891 23.0612 -51.3578 13.8078 -84.0235 -177.417 0 -1.186 -1.5018 -0.0900355 -0.150081 -0.14165 0 9.964 0.2134 -0.180476 -0.2999 -0.283496 0 13.134 -3.2573 -0.180469 -0.299931 -0.2835 0 20.686 -1.6905 0.000206273 -0.475622 0.000283508 0 7.238 -0.1237 -1.94908e-006 -0.492641 1.18282e-006 1.7069 20.075 5.0056 -6.52343 0.0148491 -0.954894 13.6458 -0.047 -4.849 2.27708 -3.81825 -51.2529 28.3255 -0.9759 2.2888 11.0059 -15.4597 -17.4671 22.1583 -0.53 10.8316 62.2837 -18.8305 12.4304 0.786 0.112 2.5817 1.14996e-006 -3.26272e-007 -1.69666e-007 0.3601 -0.878 4.2331 1.56181e-006 -1.06439e-006 -2.61656e-007 1.8127 -1.216 2.2227 -3.26272e-007 -1.14996e-006 -1.4315e-008 0.9571 1.114 1.7695 1.19271e-015 1.98785e-015 3.18055e-015 4.1246 0.487 4.1451 1.14996e-006 -3.26272e-007 -1.69666e-007 3.4052 -1.454 2.7682 1.56181e-006 -1.06439e-006 -2.61656e-007 1.4531 -1.795 1.2713 -3.26272e-007 -1.14996e-006 -1.4315e-008 5.6954 0.21 2.1184 1.14996e-006 -3.26272e-007 -1.69666e-007 3.9766 -1.54 2.3863 1.56181e-006 -1.06439e-006 -2.61656e-007 1.4042 -1.926 1.125 -3.26272e-007 -1.14996e-006 -1.4315e-008 2.0956 0.66 -0.3894 1.19271e-015 1.98785e-015 3.18055e-015 5.0395 -0.09 2.4971 1.14996e-006 -3.26272e-007 -1.69666e-007 3.7921 -1.552 1.4806 1.56181e-006 -1.06439e-006 -2.61656e-007 1.4655 -1.808 0.9609 -3.26272e-007 -1.14996e-006 -1.4315e-008 4.9141 -1.269 0.3591 1.14996e-006 -3.26272e-007 -1.69666e-007 3.1477 -1.685 0.8462 1.56181e-006 -1.06439e-006 -2.61656e-007 0.8055 -1.585 0.7955 -3.26272e-007 -1.14996e-006 -1.4315e-008 -1.7069 20.075 5.0056 6.51891 0.0151964 0.945838 -13.6458 -0.047 -4.849 -2.14927 -3.65402 52.0024 -28.3255 -0.9759 2.2888 -12.9587 -15.9117 15.9488 -22.1583 -0.53 10.8316 -62.2692 -18.8679 -13.0076 -0.786 0.112 2.5817 2.38542e-015 7.95139e-016 -3.18055e-015 -0.3601 -0.878 4.2331 -7.95139e-016 -1.19271e-015 -6.36111e-015 -1.8127 -1.216 2.2227 -7.95139e-016 -3.97569e-016 -6.36111e-015 -0.9571 1.114 1.7695 2.38542e-015 2.78299e-015 -0 -4.1246 0.487 4.1451 3.97569e-015 1.98785e-015 1.90833e-014 -3.4052 -1.454 2.7682 0 0 -6.36111e-015 -1.4531 -1.795 1.2713 -7.95139e-016 0 -3.18055e-015 -5.6954 0.21 2.1184 3.97569e-015 1.98785e-015 1.90833e-014 -3.9766 -1.54 2.3863 0 0 -6.36111e-015 -1.4042 -1.926 1.125 -7.95139e-016 0 -3.18055e-015 -2.0956 0.66 -0.3894 2.38542e-015 2.78299e-015 -0 -5.0395 -0.09 2.4971 3.97569e-015 1.98785e-015 1.90833e-014 -3.7921 -1.552 1.4806 0 0 -6.36111e-015 -1.4655 -1.808 0.9609 -7.95139e-016 0 -3.18055e-015 -4.9141 -1.269 0.3592 3.97569e-015 1.98785e-015 1.90833e-014 -3.1477 -1.685 0.8462 0 0 -6.36111e-015 -0.8055 -1.585 0.7955 -7.95139e-016 0 -3.18055e-015 8.367 -8.2066 0.5982 155.358 -29.8431 174.821 2.1923 -43.463 -0.4932 170.711 45.3564 -162.765 0.7333 -45.8593 -2.6451 12.9953 68.1064 -2.78034 -8.367 -8.2066 0.5982 -155.364 -29.0711 -173.712 -2.1923 -43.463 -0.4931 -171.281 44.1345 163.984 -0.7333 -45.8593 -2.6451 -12.3713 67.6008 2.71688 
-0.142372 25.7534 -51.3163 7.93758 -87.345 -174.683 -2.22045e-016 -1.186 -1.5018 -0.0862124 -0.113179 -0.134782 0 9.964 0.2134 -0.172691 -0.226127 -0.269735 0 13.134 -3.2573 -0.172691 -0.226124 -0.269735 0 20.686 -1.6905 -0.000226248 -0.712354 -0.000315467 -4.44089e-016 7.238 -0.1237 5.29886e-007 -0.629705 9.57849e-007 1.7069 20.075 5.0056 -6.4233 0.483998 -2.75301 13.6458 -0.047 -4.849 2.3854 -3.84479 -47.2407 28.3255 -0.9759 2.2888 10.4437 -14.659 -14.6293 22.1583 -0.53 10.8316 59.438 -18.9653 10.7643 0.786 0.112 2.5817 7.95139e-016 3.97569e-016 3.18055e-015 0.3601 -0.878 4.2331 5.84738e-007 -3.0187e-007 6.96726e-006 1.8127 -1.216 2.2227 -5.84738e-007 3.0187e-007 -6.96726e-006 0.9571 1.114 1.7695 7.95139e-016 0 3.18055e-015 4.1246 0.487 4.1451 3.18055e-015 3.97569e-016 -3.18055e-015 3.4052 -1.454 2.7682 5.84738e-007 -3.0187e-007 6.96726e-006 1.4531 -1.795 1.2713 -5.84738e-007 3.0187e-007 -6.96726e-006 5.6954 0.21 2.1184 3.18055e-015 3.97569e-016 -3.18055e-015 3.9766 -1.54 2.3863 5.84738e-007 -3.0187e-007 6.96726e-006 1.4042 -1.926 1.125 -5.84738e-007 3.0187e-007 -6.96726e-006 2.0956 0.66 -0.3894 7.95139e-016 0 3.18055e-015 5.0395 -0.09 2.4971 3.18055e-015 3.97569e-016 -3.18055e-015 3.7921 -1.552 1.4806 5.84738e-007 -3.0187e-007 6.96726e-006 1.4655 -1.808 0.9609 -5.84738e-007 3.0187e-007 -6.96726e-006 4.9141 -1.269 0.3591 3.18055e-015 3.97569e-016 -3.18055e-015 3.1477 -1.685 0.8462 5.84738e-007 -3.0187e-007 6.96726e-006 0.8055 -1.585 0.7955 -5.84738e-007 3.0187e-007 -6.96726e-006 -1.7069 20.075 5.0056 6.41285 0.486658 2.71472 -13.6458 -0.047 -4.849 -2.24928 -3.69297 48.0474 -28.3255 -0.9759 2.2888 -12.4134 -15.0474 13.1243 -22.1583 -0.53 10.8316 -59.4206 -19.0154 -11.328 -0.786 0.112 2.5817 3.97569e-016 5.96354e-016 -3.18055e-015 -0.3601 -0.878 4.2331 -6.38856e-008 2.91778e-007 -3.36754e-006 -1.8127 -1.216 2.2227 -1.19271e-015 5.96354e-016 9.54166e-015 -0.9571 1.114 1.7695 3.97569e-016 3.97569e-016 -3.18055e-015 -4.1246 0.487 4.1451 -7.95139e-016 1.98785e-016 6.36111e-015 -3.4052 -1.454 2.7682 -6.38856e-008 2.91778e-007 -3.36754e-006 -1.4531 -1.795 1.2713 -7.95139e-016 1.98785e-016 6.36111e-015 -5.6954 0.21 2.1184 -7.95139e-016 1.98785e-016 6.36111e-015 -3.9766 -1.54 2.3863 -6.38856e-008 2.91778e-007 -3.36754e-006 -1.4042 -1.926 1.125 -7.95139e-016 1.98785e-016 6.36111e-015 -2.0956 0.66 -0.3894 3.97569e-016 3.97569e-016 -3.18055e-015 -5.0395 -0.09 2.4971 -7.95139e-016 1.98785e-016 6.36111e-015 -3.7921 -1.552 1.4806 -6.38856e-008 2.91778e-007 -3.36754e-006 -1.4655 -1.808 0.9609 -7.95139e-016 1.98785e-016 6.36111e-015 -4.9141 -1.269 0.3592 -7.95139e-016 1.98785e-016 6.36111e-015 -3.1477 -1.685 0.8462 -6.38856e-008 2.91778e-007 -3.36754e-006 -0.8055 -1.585 0.7955 -7.95139e-016 1.98785e-016 6.36111e-015 8.367 -8.2066 0.5982 152.972 -37.7025 171.455 2.1923 -43.463 -0.4932 170.433 50.8933 -164.159 0.7333 -45.8593 -2.6451 13.1185 63.5748 -3.43436 -8.367 -8.2066 0.5982 -152.929 -37.5654 -171.205 -2.1923 -43.463 -0.4931 -170.578 50.5956 164.431 -0.7333 -45.8593 -2.6451 -12.97 63.3902 3.39705 
